<svg width="400" height="300" xmlns="http://www.w3.org/2000/svg">
  <rect width="400" height="300" fill="#f5f5f0"/>
  <g transform="translate(60, 100)">
    <rect x="10" y="40" width="50" height="60" rx="5" fill="#d4842a"/>
    <path d="M10 40 Q35 0 60 40" fill="#FF69B4"/>
    <circle cx="35" cy="25" r="5" fill="#FF0000"/>
  </g>
  <g transform="translate(140, 110)">
    <rect x="10" y="35" width="45" height="55" rx="5" fill="#8B4513"/>
    <path d="M10 35 Q32 0 55 35" fill="#87CEEB"/>
    <circle cx="32" cy="20" r="4" fill="#FFD700"/>
  </g>
  <g transform="translate(220, 95)">
    <rect x="10" y="40" width="50" height="60" rx="5" fill="#d4842a"/>
    <path d="M10 40 Q35 5 60 40" fill="#98FB98"/>
    <circle cx="35" cy="28" r="5" fill="#FF6347"/>
  </g>
  <g transform="translate(295, 105)">
    <rect x="10" y="38" width="48" height="57" rx="5" fill="#8B4513"/>
    <path d="M10 38 Q34 3 58 38" fill="#DDA0DD"/>
    <circle cx="34" cy="22" r="4" fill="#FF69B4"/>
  </g>
  <text x="200" y="260" font-family="Arial" font-size="18" fill="#1a4d3e" text-anchor="middle">Cupcakes</text>
</svg>